{"glyphs":{"0":{"ha":1365,"x_min":0,"x_max":0,"o":"m 682 1174 b 90 581 356 1174 90 908 b 682 -11 90 254 356 -11 b 1275 581 1010 -11 1275 254 b 682 1174 1275 908 1010 1174 z m 682 399 b 500 581 582 399 500 481 b 682 763 500 682 582 763 b 864 581 783 763 864 682 b 682 399 864 481 783 399 z "},"1":{"ha":781,"x_min":0,"x_max":0,"o":"m 208 0 l 208 1056 l 572 1204 l 572 0 z "},"2":{"ha":1154,"x_min":0,"x_max":0,"o":"m 1043 725 b 578 1190 1043 982 835 1190 b 111 725 319 1190 111 982 b 118 646 111 697 114 672 b 367 714 211 722 304 751 b 321 218 469 651 449 429 b 128 0 264 125 194 50 l 1043 0 l 779 304 b 1043 725 936 381 1043 540 z "},"3":{"ha":1135,"x_min":0,"x_max":0,"o":"m 1024 796 b 558 1176 1024 1006 815 1176 b 111 903 346 1176 168 1061 l 418 711 l 206 578 l 418 444 l 111 253 b 558 -21 168 94 346 -21 b 1024 361 815 -21 1024 150 b 940 578 1024 442 993 517 b 1024 796 993 640 1024 714 z "},"4":{"ha":1161,"x_min":0,"x_max":0,"o":"m 896 1176 l 633 1176 l 111 515 l 111 171 l 376 171 b 531 0 514 171 531 154 l 896 0 b 1050 171 896 154 913 171 l 1050 515 l 896 515 z m 447 515 l 447 664 l 596 664 l 596 515 z "},"5":{"ha":1154,"x_min":0,"x_max":0,"o":"m 578 864 l 964 864 l 964 1163 l 111 1163 l 111 517 l 578 517 l 578 368 l 111 368 b 578 -21 111 153 319 -21 b 1043 368 835 -21 1043 153 b 578 757 1043 582 835 757 z "},"6":{"ha":1156,"x_min":0,"x_max":0,"o":"m 578 764 b 560 763 572 764 567 764 b 944 864 638 826 757 864 l 944 1163 b 111 389 415 1163 111 890 b 578 -28 111 107 321 -28 b 1044 361 835 -28 1044 146 b 578 764 1044 575 835 764 z m 578 272 b 475 375 521 272 475 318 b 578 478 475 432 521 478 b 681 375 635 478 681 432 b 578 272 681 318 635 272 z "},"7":{"ha":1118,"x_min":0,"x_max":0,"o":"m 119 835 l 482 835 l 111 0 l 560 0 l 1076 1176 l 119 1176 z "},"8":{"ha":1199,"x_min":0,"x_max":0,"o":"m 932 614 b 1032 840 994 676 1032 757 b 600 1183 1032 1031 839 1183 b 167 840 360 1183 167 1031 b 267 614 167 757 204 676 b 111 342 171 544 111 446 b 600 -21 111 142 329 -21 b 1088 342 869 -21 1088 142 b 932 614 1088 446 1028 544 z m 600 650 b 496 754 542 650 496 697 b 600 857 496 811 542 857 b 703 754 657 857 703 811 b 600 650 703 697 657 650 z "},"9":{"ha":1154,"x_min":0,"x_max":0,"o":"m 578 1190 b 111 801 319 1190 111 1017 b 578 400 111 588 319 400 l 594 400 b 210 299 518 336 397 299 l 210 0 b 1043 717 739 0 1043 217 b 578 1190 1043 999 835 1190 z m 578 685 b 474 788 519 685 474 731 b 578 892 474 844 519 892 b 681 788 635 892 681 844 b 578 685 681 731 635 685 z "},"A":{"ha":1150,"x_min":0,"x_max":0,"o":"m 139 0 l 1011 0 l 1011 1181 b 139 367 547 1181 139 867 z m 461 239 l 461 382 l 604 382 l 604 239 z "},"B":{"ha":1193,"x_min":0,"x_max":0,"o":"m 789 667 b 139 1181 775 1094 460 1181 l 139 0 l 1054 0 l 1054 261 b 789 667 1054 476 947 601 z m 622 239 l 622 382 l 764 382 l 764 239 z "},"C":{"ha":1329,"x_min":0,"x_max":0,"o":"m 1218 854 b 696 1179 1122 1047 924 1179 b 111 588 374 1179 111 915 b 696 -4 111 261 374 -4 b 1218 321 924 -4 1122 128 l 896 588 z "},"D":{"ha":1147,"x_min":0,"x_max":0,"o":"m 139 1174 l 139 0 l 361 0 b 1008 588 719 0 1008 263 b 361 1174 1008 911 719 1174 z m 571 576 l 571 718 l 713 718 l 713 576 z "},"E":{"ha":1150,"x_min":0,"x_max":0,"o":"m 769 807 l 568 807 l 568 1175 l 139 1175 l 139 0 l 1011 0 l 1011 551 l 769 551 z "},"F":{"ha":1150,"x_min":0,"x_max":0,"o":"m 822 913 l 1011 913 l 1011 1175 l 139 1175 l 139 0 l 568 0 l 568 658 l 822 658 z "},"G":{"ha":1286,"x_min":0,"x_max":0,"o":"m 644 586 l 1081 924 b 644 1181 983 1075 825 1181 b 111 588 350 1181 111 911 b 644 -6 111 263 350 -6 b 1008 160 785 -6 913 61 l 1175 0 l 1175 586 z "},"H":{"ha":1171,"x_min":0,"x_max":0,"o":"m 669 776 b 501 778 635 824 538 824 l 501 1175 l 139 1175 l 139 0 l 501 0 l 501 171 b 669 171 538 218 635 218 l 669 0 l 1032 0 l 1032 1175 l 669 1175 z "},"I":{"ha":640,"x_min":0,"x_max":0,"o":"m 139 0 l 139 1174 l 501 1174 l 501 0 z "},"J":{"ha":1129,"x_min":0,"x_max":0,"o":"m 139 424 b 565 -3 139 188 329 -3 b 990 424 800 -3 990 188 l 990 1183 l 493 1183 l 493 424 z "},"K":{"ha":1183,"x_min":0,"x_max":0,"o":"m 706 1175 l 557 865 l 557 1175 l 139 1175 l 139 0 l 1044 0 l 769 592 l 1044 1175 z "},"L":{"ha":1128,"x_min":0,"x_max":0,"o":"m 688 503 b 524 667 597 503 524 576 l 524 1175 l 139 1175 l 139 0 l 989 0 l 989 503 z "},"M":{"ha":1342,"x_min":0,"x_max":0,"o":"m 849 1175 l 849 868 b 542 1175 849 1038 711 1175 l 493 1175 l 493 868 b 188 1175 493 1038 357 1175 l 139 1175 l 139 0 l 454 0 l 454 207 l 538 207 l 538 0 l 807 0 l 807 207 l 890 207 l 890 0 l 1203 0 l 1203 868 b 897 1175 1203 1038 1067 1175 z "},"N":{"ha":1151,"x_min":0,"x_max":0,"o":"m 139 1174 l 142 0 b 465 189 292 0 414 86 l 1013 0 l 1013 1174 b 688 986 861 1175 738 1089 z "},"O":{"ha":1406,"x_min":0,"x_max":0,"o":"m 703 1179 b 111 588 376 1179 111 914 b 703 -4 111 261 376 -4 b 1294 588 1029 -4 1294 261 b 703 1179 1294 914 1029 1179 z m 501 658 b 424 736 458 658 424 693 b 501 814 424 779 458 814 b 579 736 544 814 579 779 b 501 658 579 693 544 658 z "},"P":{"ha":1124,"x_min":0,"x_max":0,"o":"m 139 1175 l 139 0 l 601 0 l 601 354 b 1013 764 828 354 1013 538 b 601 1175 1013 990 828 1175 z m 513 800 l 513 942 l 654 942 l 654 800 z "},"Q":{"ha":1397,"x_min":0,"x_max":0,"o":"m 1286 585 b 699 1178 1286 913 1024 1178 b 111 585 375 1178 111 913 b 699 -7 111 258 375 -7 b 788 0 729 -7 758 -4 l 1231 0 l 1106 158 b 1286 585 1217 265 1286 417 z m 533 321 b 456 397 490 321 456 356 b 533 475 456 440 490 475 b 610 397 575 475 610 440 b 533 321 610 356 575 321 z "},"R":{"ha":1150,"x_min":0,"x_max":0,"o":"m 1011 764 b 601 1175 1011 990 828 1175 l 139 1175 l 139 0 l 1011 0 l 710 368 b 1011 764 883 415 1011 575 z m 732 942 l 732 800 l 590 800 l 590 942 z "},"S":{"ha":1171,"x_min":0,"x_max":0,"o":"m 1060 1019 b 272 1042 1011 1082 613 1336 b 310 336 -68 747 310 338 l 111 156 b 899 133 161 92 558 -162 b 861 838 1239 428 861 838 z "},"T":{"ha":1246,"x_min":0,"x_max":0,"o":"m 808 510 b 963 679 808 663 825 679 l 1128 679 l 1128 1174 l 125 1174 l 125 679 l 290 679 b 444 510 428 679 444 663 l 444 0 l 808 0 z "},"U":{"ha":1131,"x_min":0,"x_max":0,"o":"m 139 418 b 565 -8 139 182 329 -8 b 992 418 800 -8 992 182 l 992 1178 l 139 1178 z "},"V":{"ha":1232,"x_min":0,"x_max":0,"o":"m 83 1175 l 1149 1175 l 615 0 z "},"W":{"ha":1350,"x_min":0,"x_max":0,"o":"m 915 994 l 840 1175 l 508 1175 l 433 994 l 360 1175 l 83 1175 l 240 0 l 600 0 l 675 181 l 749 0 l 1110 0 l 1267 1175 l 990 1175 z "},"X":{"ha":1182,"x_min":0,"x_max":0,"o":"m 1043 811 l 1043 1175 l 703 1175 l 592 1028 l 479 1175 l 139 1175 l 139 811 l 288 588 l 139 364 l 139 0 l 479 0 l 592 146 l 703 0 l 1043 0 l 1043 364 l 894 588 z "},"Y":{"ha":1167,"x_min":0,"x_max":0,"o":"m 56 1175 l 403 685 l 403 0 l 765 0 l 765 682 l 1111 1175 z "},"Z":{"ha":1229,"x_min":0,"x_max":0,"o":"m 893 293 l 1118 0 l 111 0 l 338 882 l 111 1175 l 1118 1175 z "}," ":{"ha":597,"x_min":0,"x_max":0,"o":""}}}
